<svg xmlns="http://www.w3.org/2000/svg" width="23.7" height="21.6" viewBox="0 0 23.7 21.6">
  <path id="_2026870191667365738" data-name="2026870191667365738" d="M22.475,6.625H17.75V5.575A1.575,1.575,0,0,0,16.175,4h-5.25A1.575,1.575,0,0,0,9.35,5.575v1.05H4.625A2.628,2.628,0,0,0,2,9.25v2.357a1.575,1.575,0,0,0,.525,1.169v9.6A2.628,2.628,0,0,0,5.15,25h16.8a2.628,2.628,0,0,0,2.625-2.625v-9.6a1.575,1.575,0,0,0,.525-1.169V9.25a2.628,2.628,0,0,0-2.625-2.625ZM10.4,5.575a.525.525,0,0,1,.525-.525h5.25a.525.525,0,0,1,.525.525v1.05H10.4ZM3.05,9.25A1.575,1.575,0,0,1,4.625,7.675h17.85A1.575,1.575,0,0,1,24.05,9.25v2.357a.525.525,0,0,1-.381.5l-8.019,2.3v-.433A1.575,1.575,0,0,0,14.075,12.4h-1.05a1.575,1.575,0,0,0-1.575,1.575v.433l-8.023-2.3a.521.521,0,0,1-.377-.5ZM14.6,13.975v2.1a.525.525,0,0,1-.525.525h-1.05a.525.525,0,0,1-.525-.525v-2.1a.525.525,0,0,1,.525-.525h1.05A.525.525,0,0,1,14.6,13.975Zm7.35,9.975H5.15a1.575,1.575,0,0,1-1.575-1.575V13.244L11.45,15.5v.573a1.575,1.575,0,0,0,1.575,1.575h1.05a1.575,1.575,0,0,0,1.575-1.575V15.5l7.875-2.258v9.135A1.575,1.575,0,0,1,21.95,23.95Z" transform="translate(-1.7 -3.7)" stroke="#000" stroke-width="0.6" opacity="0.8"/>
</svg>
