<svg xmlns="http://www.w3.org/2000/svg" width="24.543" height="20.528" viewBox="0 0 24.543 20.528">
  <g id="Icon_feather-users" data-name="Icon feather-users" transform="translate(-0.5 -3.416)">
    <path id="Path_41467" data-name="Path 41467" d="M17.895,28.648V26.6a4.1,4.1,0,0,0-4.1-4.1H5.6a4.1,4.1,0,0,0-4.1,4.1v2.049" transform="translate(0 -5.704)" fill="none" stroke="#001120" stroke-linecap="round" stroke-linejoin="round" stroke-width="2"/>
    <path id="Path_41468" data-name="Path 41468" d="M15.7,8.6a4.1,4.1,0,1,1-4.1-4.1,4.1,4.1,0,0,1,4.1,4.1Z" transform="translate(-1.901)" fill="none" stroke="#001120" stroke-linecap="round" stroke-linejoin="round" stroke-width="2"/>
    <path id="Path_41469" data-name="Path 41469" d="M33.074,28.71V26.661A4.1,4.1,0,0,0,30,22.7" transform="translate(-9.031 -5.766)" fill="none" stroke="#001120" stroke-linecap="round" stroke-linejoin="round" stroke-width="2"/>
    <path id="Path_41470" data-name="Path 41470" d="M24,4.7a4.1,4.1,0,0,1,0,7.941" transform="translate(-7.13 -0.062)" fill="none" stroke="#001120" stroke-linecap="round" stroke-linejoin="round" stroke-width="2"/>
  </g>
</svg>
