<svg xmlns="http://www.w3.org/2000/svg" width="22.469" height="26.214" viewBox="0 0 22.469 26.214">
  <path id="Icon_ionic-ios-git-network" data-name="Icon ionic-ios-git-network" d="M22.838,2.25a4.138,4.138,0,0,0-3.107,6.864,4.089,4.089,0,0,0,2.235,1.317v2.522l-6.232,3.242L9.509,12.952V10.43A4.134,4.134,0,1,0,5.524,9.114,4.089,4.089,0,0,0,7.759,10.43v3.359a.409.409,0,0,0,.228.369l6.875,3.558v2.569A4.132,4.132,0,1,0,18.841,21.6a4.089,4.089,0,0,0-2.235-1.317V17.715l6.875-3.558a.409.409,0,0,0,.228-.369V10.43a4.137,4.137,0,0,0-.872-8.18ZM6.244,6.387A2.387,2.387,0,1,1,8.631,8.774,2.39,2.39,0,0,1,6.244,6.387Zm11.878,17.94a2.387,2.387,0,1,1-2.387-2.387A2.39,2.39,0,0,1,18.122,24.327ZM22.838,8.78a2.387,2.387,0,1,1,2.387-2.387A2.39,2.39,0,0,1,22.838,8.78Z" transform="translate(-4.5 -2.25)" opacity="0.8"/>
</svg>
